<svg width="66" height="80" viewBox="0 0 66 80" fill="none" xmlns="http://www.w3.org/2000/svg">
<path d="M0.5 0.5V79.5H59.5V20.2071L39.7929 0.5H0.5Z" fill="white" stroke="#F3EEE9"/>
<path d="M21.776 64V46.96H29C29.784 46.96 30.504 47.128 31.16 47.464C31.832 47.784 32.408 48.216 32.888 48.76C33.368 49.288 33.744 49.896 34.016 50.584C34.288 51.256 34.424 51.936 34.424 52.624C34.424 53.344 34.296 54.048 34.04 54.736C33.784 55.408 33.424 56.008 32.96 56.536C32.496 57.064 31.936 57.488 31.28 57.808C30.624 58.128 29.904 58.288 29.12 58.288H25.088V64H21.776ZM25.088 55.384H28.928C29.536 55.384 30.04 55.136 30.44 54.64C30.856 54.144 31.064 53.472 31.064 52.624C31.064 52.192 31 51.808 30.872 51.472C30.744 51.12 30.576 50.824 30.368 50.584C30.16 50.344 29.912 50.168 29.624 50.056C29.352 49.928 29.072 49.864 28.784 49.864H25.088V55.384ZM36.7291 64V46.96H42.9211C44.3131 46.96 45.5291 47.184 46.5691 47.632C47.6251 48.08 48.5051 48.688 49.2091 49.456C49.9131 50.224 50.4411 51.128 50.7931 52.168C51.1451 53.192 51.3211 54.288 51.3211 55.456C51.3211 56.752 51.1211 57.928 50.7211 58.984C50.3371 60.024 49.7771 60.92 49.0411 61.672C48.3051 62.408 47.4171 62.984 46.3771 63.4C45.3531 63.8 44.2011 64 42.9211 64H36.7291ZM47.9851 55.456C47.9851 54.64 47.8731 53.888 47.6491 53.2C47.4251 52.512 47.0971 51.92 46.6651 51.424C46.2331 50.928 45.6971 50.544 45.0571 50.272C44.4331 50 43.7211 49.864 42.9211 49.864H40.0411V61.096H42.9211C43.7371 61.096 44.4571 60.952 45.0811 60.664C45.7211 60.376 46.2491 59.984 46.6651 59.488C47.0971 58.976 47.4251 58.376 47.6491 57.688C47.8731 57 47.9851 56.256 47.9851 55.456ZM53.9088 64V46.96H65.3568V49.864H57.2208V54.256H63.9888V56.944H57.2208V64H53.9088Z" fill="#1E0F00"/>
<path d="M40 0L40 20L60 20L40 0Z" fill="#90857A"/>
</svg>
