<svg width="71" height="80" viewBox="0 0 71 80" fill="none" xmlns="http://www.w3.org/2000/svg">
<path d="M0.5 0.5V79.5H59.5V20.2071L39.7929 0.5H0.5Z" fill="white" stroke="#F3EEE9"/>
<path d="M21.776 64V46.96H29C29.784 46.96 30.504 47.128 31.16 47.464C31.832 47.784 32.408 48.216 32.888 48.76C33.368 49.288 33.744 49.896 34.016 50.584C34.288 51.256 34.424 51.936 34.424 52.624C34.424 53.344 34.296 54.048 34.04 54.736C33.784 55.408 33.424 56.008 32.96 56.536C32.496 57.064 31.936 57.488 31.28 57.808C30.624 58.128 29.904 58.288 29.12 58.288H25.088V64H21.776ZM25.088 55.384H28.928C29.536 55.384 30.04 55.136 30.44 54.64C30.856 54.144 31.064 53.472 31.064 52.624C31.064 52.192 31 51.808 30.872 51.472C30.744 51.12 30.576 50.824 30.368 50.584C30.16 50.344 29.912 50.168 29.624 50.056C29.352 49.928 29.072 49.864 28.784 49.864H25.088V55.384ZM40.0411 53.08V64H36.7291V46.96H39.2971L48.1771 58.144V46.984H51.4891V64H48.8011L40.0411 53.08ZM66.8658 62.08C65.5058 63.44 63.9218 64.12 62.1138 64.12C60.9938 64.12 59.9378 63.896 58.9458 63.448C57.9698 63 57.1138 62.384 56.3778 61.6C55.6578 60.816 55.0818 59.896 54.6498 58.84C54.2338 57.768 54.0258 56.616 54.0258 55.384C54.0258 54.216 54.2338 53.12 54.6498 52.096C55.0818 51.056 55.6658 50.152 56.4018 49.384C57.1538 48.6 58.0338 47.984 59.0418 47.536C60.0498 47.072 61.1458 46.84 62.3298 46.84C63.9298 46.84 65.2978 47.176 66.4338 47.848C67.5858 48.52 68.4498 49.424 69.0258 50.56L66.5538 52.384C66.1218 51.536 65.5138 50.888 64.7298 50.44C63.9618 49.992 63.1218 49.768 62.2098 49.768C61.4898 49.768 60.8258 49.92 60.2178 50.224C59.6258 50.528 59.1138 50.944 58.6818 51.472C58.2658 52 57.9378 52.608 57.6978 53.296C57.4738 53.984 57.3618 54.712 57.3618 55.48C57.3618 56.28 57.4898 57.032 57.7458 57.736C58.0018 58.424 58.3538 59.024 58.8018 59.536C59.2498 60.048 59.7778 60.456 60.3858 60.76C61.0098 61.048 61.6818 61.192 62.4018 61.192C64.0498 61.192 65.5378 60.416 66.8658 58.864V57.664H63.4338V55.24H69.6018V64H66.8658V62.08Z" fill="#1E0F00"/>
<path d="M40 0L40 20L60 20L40 0Z" fill="#90857A"/>
</svg>
