<svg width="65" height="60" viewBox="0 0 65 60" fill="none" xmlns="http://www.w3.org/2000/svg">
<path d="M6.03747 14.9997C6.99291 14.9997 7.76745 14.2252 7.76745 13.2698C7.76745 12.3143 6.99291 11.5398 6.03747 11.5398C5.08203 11.5398 4.3075 12.3143 4.3075 13.2698C4.3075 14.2252 5.08203 14.9997 6.03747 14.9997Z" fill="#1A1A1A"/>
<path d="M30.847 57.6992C46.7802 57.6992 59.6966 44.7828 59.6966 28.8496C59.6966 12.9164 46.7802 0 30.847 0C14.9138 0 1.99744 12.9164 1.99744 28.8496C1.99744 44.7828 14.9138 57.6992 30.847 57.6992Z" fill="url(#paint0_linear)"/>
<path d="M9.50236 2.30501C9.81992 2.30501 10.0774 2.04758 10.0774 1.73002C10.0774 1.41246 9.81992 1.15503 9.50236 1.15503C9.1848 1.15503 8.92737 1.41246 8.92737 1.73002C8.92737 2.04758 9.1848 2.30501 9.50236 2.30501Z" fill="#1A1A1A"/>
<path d="M52.1968 55.389C52.5144 55.389 52.7718 55.1316 52.7718 54.814C52.7718 54.4964 52.5144 54.239 52.1968 54.239C51.8793 54.239 51.6218 54.4964 51.6218 54.814C51.6218 55.1316 51.8793 55.389 52.1968 55.389Z" fill="#1A1A1A"/>
<path d="M35.377 29.7694C26.7021 36.0243 5.51243 51.6491 1.32748 57.829C-0.957483 61.244 8.03239 59.209 16.4823 55.6141C5.25243 60.474 1.73248 60.324 0.612495 59.664C-4.29244 56.544 21.5672 34.2194 31.6921 25.7545C36.067 21.7695 39.9869 27.0195 35.377 29.7694Z" fill="#FFCC00"/>
<path d="M45.182 30.7749L43.212 22.5901C43.017 21.7801 42.567 21.0551 41.922 20.5301L35.4271 15.1702L43.992 19.0301C44.912 19.4451 45.492 20.3751 45.462 21.3851L45.182 30.7749Z" fill="white"/>
<path d="M42.277 42.0696L42.402 26.7248C42.412 25.5248 42.982 24.3999 43.942 23.6799L64.6417 8.21509L43.697 42.4796C43.292 43.1446 42.272 42.8496 42.277 42.0696Z" fill="white"/>
<path d="M24.0023 12.8251L37.8521 19.44C38.9371 19.955 40.1971 19.94 41.262 19.39L64.2317 7.56519L24.2573 11.3701C23.4873 11.4451 23.2973 12.4901 24.0023 12.8251Z" fill="white"/>
<defs>
<linearGradient id="paint0_linear" x1="51.25" y1="8.45018" x2="10.449" y2="49.2512" gradientUnits="userSpaceOnUse">
<stop offset="0.3966" stop-color="#1A1A1A"/>
<stop offset="1"/>
</linearGradient>
</defs>
</svg>
