<svg width="65" height="80" viewBox="0 0 65 80" fill="none" xmlns="http://www.w3.org/2000/svg">
<path d="M60 20L40 0H0V80H60V20Z" fill="white"/>
<path d="M20.912 60.52C21.136 60.68 21.512 60.856 22.04 61.048C22.568 61.24 23.176 61.336 23.864 61.336C24.536 61.336 25.072 61.224 25.472 61C25.872 60.76 26.176 60.4 26.384 59.92C26.592 59.44 26.728 58.848 26.792 58.144C26.856 57.424 26.888 56.584 26.888 55.624V46.96H30.2V55.624C30.2 56.92 30.128 58.104 29.984 59.176C29.856 60.232 29.568 61.136 29.12 61.888C28.688 62.64 28.056 63.224 27.224 63.64C26.392 64.056 25.272 64.264 23.864 64.264C22.424 64.264 21.192 63.912 20.168 63.208L20.912 60.52ZM33.5651 64V46.96H40.7891C41.5731 46.96 42.2931 47.128 42.9491 47.464C43.6211 47.784 44.1971 48.216 44.6771 48.76C45.1571 49.288 45.5331 49.896 45.8051 50.584C46.0771 51.256 46.2131 51.936 46.2131 52.624C46.2131 53.344 46.0851 54.048 45.8291 54.736C45.5731 55.408 45.2131 56.008 44.7491 56.536C44.2851 57.064 43.7251 57.488 43.0691 57.808C42.4131 58.128 41.6931 58.288 40.9091 58.288H36.8771V64H33.5651ZM36.8771 55.384H40.7171C41.3251 55.384 41.8291 55.136 42.2291 54.64C42.6451 54.144 42.8531 53.472 42.8531 52.624C42.8531 52.192 42.7891 51.808 42.6611 51.472C42.5331 51.12 42.3651 50.824 42.1571 50.584C41.9491 50.344 41.7011 50.168 41.4131 50.056C41.1411 49.928 40.8611 49.864 40.5731 49.864H36.8771V55.384ZM60.3502 62.08C58.9902 63.44 57.4062 64.12 55.5982 64.12C54.4782 64.12 53.4222 63.896 52.4302 63.448C51.4542 63 50.5982 62.384 49.8622 61.6C49.1422 60.816 48.5662 59.896 48.1342 58.84C47.7182 57.768 47.5102 56.616 47.5102 55.384C47.5102 54.216 47.7182 53.12 48.1342 52.096C48.5662 51.056 49.1502 50.152 49.8862 49.384C50.6382 48.6 51.5182 47.984 52.5262 47.536C53.5342 47.072 54.6302 46.84 55.8142 46.84C57.4142 46.84 58.7822 47.176 59.9182 47.848C61.0702 48.52 61.9342 49.424 62.5102 50.56L60.0382 52.384C59.6062 51.536 58.9982 50.888 58.2142 50.44C57.4462 49.992 56.6062 49.768 55.6942 49.768C54.9742 49.768 54.3102 49.92 53.7022 50.224C53.1102 50.528 52.5982 50.944 52.1662 51.472C51.7502 52 51.4222 52.608 51.1822 53.296C50.9582 53.984 50.8462 54.712 50.8462 55.48C50.8462 56.28 50.9742 57.032 51.2302 57.736C51.4862 58.424 51.8382 59.024 52.2862 59.536C52.7342 60.048 53.2622 60.456 53.8702 60.76C54.4942 61.048 55.1662 61.192 55.8862 61.192C57.5342 61.192 59.0222 60.416 60.3502 58.864V57.664H56.9182V55.24H63.0862V64H60.3502V62.08Z" fill="#1E0F00"/>
<path d="M40 0L40 20L60 20L40 0Z" fill="#90857A"/>
</svg>
