<svg width="9" height="16" viewBox="0 0 9 16" fill="none" xmlns="http://www.w3.org/2000/svg">
<path d="M8.3232 0H6.25073C3.91837 0 2.41233 1.54602 2.41233 3.93836V5.75094H0.326531C0.146606 5.75094 0 5.89754 0 6.07747V8.7097C0 8.88963 0.146606 9.03623 0.326531 9.03623H2.41233V15.6735C2.41233 15.8534 2.55893 16 2.73886 16H5.45773C5.63765 16 5.78426 15.8534 5.78426 15.6735V9.03623H8.22324C8.40316 9.03623 8.54977 8.88963 8.54977 8.7097V6.07747C8.54977 5.99084 8.51645 5.91087 8.45648 5.84423C8.3965 5.78426 8.30987 5.75094 8.22324 5.75094H5.78426V4.21158C5.78426 3.47189 5.95752 3.09871 6.92378 3.09871H8.3232C8.50312 3.09871 8.64973 2.9521 8.64973 2.77218V0.326531C8.64973 0.146606 8.50312 0.00666389 8.3232 0Z" fill="white"/>
</svg>
